<?xml version="1.0" encoding="UTF-8" standalone="no"?><svg xmlns="http://www.w3.org/2000/svg" xmlns:xlink="http://www.w3.org/1999/xlink" contentScriptType="application/ecmascript" contentStyleType="text/css" height="439px" preserveAspectRatio="none" style="width:970px;height:439px;" version="1.1" viewBox="0 0 970 439" width="970px" zoomAndPan="magnify"><defs><filter height="300%" id="f1psv9fb9okc5k" width="300%" x="-1" y="-1"><feGaussianBlur result="blurOut" stdDeviation="2.0"/><feColorMatrix in="blurOut" result="blurOut2" type="matrix" values="0 0 0 0 0 0 0 0 0 0 0 0 0 0 0 0 0 0 .4 0"/><feOffset dx="4.0" dy="4.0" in="blurOut2" result="blurOut3"/><feBlend in="SourceGraphic" in2="blurOut3" mode="normal"/></filter></defs><g><!--entity Witness--><rect fill="#FEFECE" filter="url(#f1psv9fb9okc5k)" height="36.2969" style="stroke: #A80036; stroke-width: 1.5;" width="75" x="419" y="8"/><rect fill="#FEFECE" height="5" style="stroke: #A80036; stroke-width: 1.5;" width="10" x="414" y="13"/><rect fill="#FEFECE" height="5" style="stroke: #A80036; stroke-width: 1.5;" width="10" x="414" y="34.2969"/><text fill="#000000" font-family="sans-serif" font-size="14" lengthAdjust="spacingAndGlyphs" textLength="55" x="429" y="30.9951">Witness</text><!--entity SerializedOutputGroup--><rect fill="#FEFECE" filter="url(#f1psv9fb9okc5k)" height="36.2969" style="stroke: #A80036; stroke-width: 1.5;" width="177" x="6" y="104"/><rect fill="#FEFECE" height="5" style="stroke: #A80036; stroke-width: 1.5;" width="10" x="1" y="109"/><rect fill="#FEFECE" height="5" style="stroke: #A80036; stroke-width: 1.5;" width="10" x="1" y="130.2969"/><text fill="#000000" font-family="sans-serif" font-size="14" lengthAdjust="spacingAndGlyphs" textLength="157" x="16" y="126.9951">SerializedOutputGroup</text><!--entity input_staterefs--><rect fill="#FEFECE" filter="url(#f1psv9fb9okc5k)" height="36.2969" style="stroke: #A80036; stroke-width: 1.5;" width="123" x="218" y="104"/><rect fill="#FEFECE" height="5" style="stroke: #A80036; stroke-width: 1.5;" width="10" x="213" y="109"/><rect fill="#FEFECE" height="5" style="stroke: #A80036; stroke-width: 1.5;" width="10" x="213" y="130.2969"/><text fill="#000000" font-family="sans-serif" font-size="14" lengthAdjust="spacingAndGlyphs" textLength="103" x="228" y="126.9951">input_staterefs</text><!--entity reference_staterefs--><rect fill="#FEFECE" filter="url(#f1psv9fb9okc5k)" height="36.2969" style="stroke: #A80036; stroke-width: 1.5;" width="155" x="804" y="104"/><rect fill="#FEFECE" height="5" style="stroke: #A80036; stroke-width: 1.5;" width="10" x="799" y="109"/><rect fill="#FEFECE" height="5" style="stroke: #A80036; stroke-width: 1.5;" width="10" x="799" y="130.2969"/><text fill="#000000" font-family="sans-serif" font-size="14" lengthAdjust="spacingAndGlyphs" textLength="135" x="814" y="126.9951">reference_staterefs</text><!--entity SerializedInputUtxos--><rect fill="#FEFECE" filter="url(#f1psv9fb9okc5k)" height="36.2969" style="stroke: #A80036; stroke-width: 1.5;" width="160" x="376.5" y="104"/><rect fill="#FEFECE" height="5" style="stroke: #A80036; stroke-width: 1.5;" width="10" x="371.5" y="109"/><rect fill="#FEFECE" height="5" style="stroke: #A80036; stroke-width: 1.5;" width="10" x="371.5" y="130.2969"/><text fill="#000000" font-family="sans-serif" font-size="14" lengthAdjust="spacingAndGlyphs" textLength="140" x="386.5" y="126.9951">SerializedInputUtxos</text><!--entity SerializedReferenceUtxos--><rect fill="#FEFECE" filter="url(#f1psv9fb9okc5k)" height="36.2969" style="stroke: #A80036; stroke-width: 1.5;" width="197" x="572" y="104"/><rect fill="#FEFECE" height="5" style="stroke: #A80036; stroke-width: 1.5;" width="10" x="567" y="109"/><rect fill="#FEFECE" height="5" style="stroke: #A80036; stroke-width: 1.5;" width="10" x="567" y="130.2969"/><text fill="#000000" font-family="sans-serif" font-size="14" lengthAdjust="spacingAndGlyphs" textLength="177" x="582" y="126.9951">SerializedReferenceUtxos</text><!--entity DeserializedOutputGroup--><rect fill="#FEFECE" filter="url(#f1psv9fb9okc5k)" height="36.2969" style="stroke: #A80036; stroke-width: 1.5;" width="196" x="17.5" y="200"/><rect fill="#FEFECE" height="5" style="stroke: #A80036; stroke-width: 1.5;" width="10" x="12.5" y="205"/><rect fill="#FEFECE" height="5" style="stroke: #A80036; stroke-width: 1.5;" width="10" x="12.5" y="226.2969"/><text fill="#000000" font-family="sans-serif" font-size="14" lengthAdjust="spacingAndGlyphs" textLength="176" x="27.5" y="222.9951">DeserializedOutputGroup</text><!--entity DeserializedInputUtxos--><rect fill="#FEFECE" filter="url(#f1psv9fb9okc5k)" height="36.2969" style="stroke: #A80036; stroke-width: 1.5;" width="179" x="341" y="200"/><rect fill="#FEFECE" height="5" style="stroke: #A80036; stroke-width: 1.5;" width="10" x="336" y="205"/><rect fill="#FEFECE" height="5" style="stroke: #A80036; stroke-width: 1.5;" width="10" x="336" y="226.2969"/><text fill="#000000" font-family="sans-serif" font-size="14" lengthAdjust="spacingAndGlyphs" textLength="159" x="351" y="222.9951">DeserializedInputUtxos</text><!--entity DeserializedReferenceUtxos--><rect fill="#FEFECE" filter="url(#f1psv9fb9okc5k)" height="36.2969" style="stroke: #A80036; stroke-width: 1.5;" width="216" x="562.5" y="200"/><rect fill="#FEFECE" height="5" style="stroke: #A80036; stroke-width: 1.5;" width="10" x="557.5" y="205"/><rect fill="#FEFECE" height="5" style="stroke: #A80036; stroke-width: 1.5;" width="10" x="557.5" y="226.2969"/><text fill="#000000" font-family="sans-serif" font-size="14" lengthAdjust="spacingAndGlyphs" textLength="196" x="572.5" y="222.9951">DeserializedReferenceUtxos</text><!--entity InputGroup--><rect fill="#FEFECE" filter="url(#f1psv9fb9okc5k)" height="36.2969" style="stroke: #A80036; stroke-width: 1.5;" width="98" x="309.5" y="296"/><rect fill="#FEFECE" height="5" style="stroke: #A80036; stroke-width: 1.5;" width="10" x="304.5" y="301"/><rect fill="#FEFECE" height="5" style="stroke: #A80036; stroke-width: 1.5;" width="10" x="304.5" y="322.2969"/><text fill="#000000" font-family="sans-serif" font-size="14" lengthAdjust="spacingAndGlyphs" textLength="78" x="319.5" y="318.9951">InputGroup</text><!--entity ReferenceGroup--><rect fill="#FEFECE" filter="url(#f1psv9fb9okc5k)" height="36.2969" style="stroke: #A80036; stroke-width: 1.5;" width="135" x="603" y="296"/><rect fill="#FEFECE" height="5" style="stroke: #A80036; stroke-width: 1.5;" width="10" x="598" y="301"/><rect fill="#FEFECE" height="5" style="stroke: #A80036; stroke-width: 1.5;" width="10" x="598" y="322.2969"/><text fill="#000000" font-family="sans-serif" font-size="14" lengthAdjust="spacingAndGlyphs" textLength="115" x="613" y="318.9951">ReferenceGroup</text><!--entity LedgerTransaction--><rect fill="#FEFECE" filter="url(#f1psv9fb9okc5k)" height="36.2969" style="stroke: #A80036; stroke-width: 1.5;" width="149" x="284" y="392"/><rect fill="#FEFECE" height="5" style="stroke: #A80036; stroke-width: 1.5;" width="10" x="279" y="397"/><rect fill="#FEFECE" height="5" style="stroke: #A80036; stroke-width: 1.5;" width="10" x="279" y="418.2969"/><text fill="#000000" font-family="sans-serif" font-size="14" lengthAdjust="spacingAndGlyphs" textLength="129" x="294" y="414.9951">LedgerTransaction</text><!--link Witness to input_staterefs--><path d="M424.45,44.02 C393.97,60.21 348.16,84.54 316.22,101.5 " fill="none" id="Witness-input_staterefs" style="stroke: #A80036; stroke-width: 1.0;"/><polygon fill="#A80036" points="311.61,103.95,321.4358,103.2771,316.0296,101.6119,317.6948,96.2057,311.61,103.95" style="stroke: #A80036; stroke-width: 1.0;"/><!--link Witness to reference_staterefs--><path d="M494.22,35.34 C562.37,50.42 707.5,82.51 799.46,102.85 " fill="none" id="Witness-reference_staterefs" style="stroke: #A80036; stroke-width: 1.0;"/><polygon fill="#A80036" points="804.34,103.93,796.4257,98.068,799.4597,102.8423,794.6854,105.8764,804.34,103.93" style="stroke: #A80036; stroke-width: 1.0;"/><!--link Witness to SerializedInputUtxos--><path d="M456.5,44.24 C456.5,59.48 456.5,81.81 456.5,98.46 " fill="none" id="Witness-SerializedInputUtxos" style="stroke: #A80036; stroke-width: 1.0;"/><polygon fill="#A80036" points="456.5,103.87,460.5,94.87,456.5,98.87,452.5,94.87,456.5,103.87" style="stroke: #A80036; stroke-width: 1.0;"/><!--link Witness to SerializedOutputGroup--><path d="M418.78,36.79 C358.89,52.35 241.06,82.94 165.13,102.66 " fill="none" id="Witness-SerializedOutputGroup" style="stroke: #A80036; stroke-width: 1.0;"/><polygon fill="#A80036" points="160.19,103.94,169.9063,105.5503,165.0296,102.6837,167.8962,97.807,160.19,103.94" style="stroke: #A80036; stroke-width: 1.0;"/><!--link Witness to SerializedReferenceUtxos--><path d="M494.27,43.59 C531.39,59.9 588.01,84.77 627,101.89 " fill="none" id="Witness-SerializedReferenceUtxos" style="stroke: #A80036; stroke-width: 1.0;"/><polygon fill="#A80036" points="631.67,103.94,625.0279,96.668,627.0892,101.9359,621.8213,103.9973,631.67,103.94" style="stroke: #A80036; stroke-width: 1.0;"/><!--link SerializedInputUtxos to DeserializedInputUtxos--><path d="M451.73,140.24 C447.48,155.61 441.23,178.2 436.62,194.89 " fill="none" id="SerializedInputUtxos-DeserializedInputUtxos" style="stroke: #A80036; stroke-width: 1.0;"/><polygon fill="#A80036" points="435.24,199.87,441.5052,192.2708,436.5797,195.0528,433.7977,190.1273,435.24,199.87" style="stroke: #A80036; stroke-width: 1.0;"/><!--link SerializedOutputGroup to DeserializedOutputGroup--><path d="M98.35,140.24 C101.79,155.61 106.83,178.2 110.56,194.89 " fill="none" id="SerializedOutputGroup-DeserializedOutputGroup" style="stroke: #A80036; stroke-width: 1.0;"/><polygon fill="#A80036" points="111.67,199.87,113.6224,190.2166,110.5853,194.9891,105.8129,191.952,111.67,199.87" style="stroke: #A80036; stroke-width: 1.0;"/><!--link SerializedReferenceUtxos to DeserializedReferenceUtxos--><path d="M670.5,140.24 C670.5,155.48 670.5,177.81 670.5,194.46 " fill="none" id="SerializedReferenceUtxos-DeserializedReferenceUtxos" style="stroke: #A80036; stroke-width: 1.0;"/><polygon fill="#A80036" points="670.5,199.87,674.5,190.87,670.5,194.87,666.5,190.87,670.5,199.87" style="stroke: #A80036; stroke-width: 1.0;"/><!--link input_staterefs to InputGroup--><path d="M285.91,140.35 C294.23,162.63 309.35,202.44 323.5,236 C331.46,254.88 341.14,276.06 348.31,291.42 " fill="none" id="input_staterefs-InputGroup" style="stroke: #A80036; stroke-width: 1.0;"/><polygon fill="#A80036" points="350.44,295.99,350.2571,286.1428,348.3248,291.4594,343.0082,289.5272,350.44,295.99" style="stroke: #A80036; stroke-width: 1.0;"/><!--link DeserializedInputUtxos to InputGroup--><path d="M417.29,236.24 C405.32,251.88 387.62,274.98 374.78,291.75 " fill="none" id="DeserializedInputUtxos-InputGroup" style="stroke: #A80036; stroke-width: 1.0;"/><polygon fill="#A80036" points="371.62,295.87,380.2689,291.1587,374.661,291.901,373.9186,286.2931,371.62,295.87" style="stroke: #A80036; stroke-width: 1.0;"/><!--link reference_staterefs to ReferenceGroup--><path d="M871.4,140.3 C856.99,163.95 828.67,206.79 796.5,236 C770.66,259.46 736.68,279.74 710.51,293.59 " fill="none" id="reference_staterefs-ReferenceGroup" style="stroke: #A80036; stroke-width: 1.0;"/><polygon fill="#A80036" points="706.06,295.93,715.8875,295.2819,710.4855,293.603,712.1644,288.201,706.06,295.93" style="stroke: #A80036; stroke-width: 1.0;"/><!--link DeserializedReferenceUtxos to ReferenceGroup--><path d="M670.5,236.24 C670.5,251.48 670.5,273.81 670.5,290.46 " fill="none" id="DeserializedReferenceUtxos-ReferenceGroup" style="stroke: #A80036; stroke-width: 1.0;"/><polygon fill="#A80036" points="670.5,295.87,674.5,286.87,670.5,290.87,666.5,286.87,670.5,295.87" style="stroke: #A80036; stroke-width: 1.0;"/><!--link InputGroup to LedgerTransaction--><path d="M358.5,332.24 C358.5,347.48 358.5,369.81 358.5,386.46 " fill="none" id="InputGroup-LedgerTransaction" style="stroke: #A80036; stroke-width: 1.0;"/><polygon fill="#A80036" points="358.5,391.87,362.5,382.87,358.5,386.87,354.5,382.87,358.5,391.87" style="stroke: #A80036; stroke-width: 1.0;"/><!--link DeserializedOutputGroup to LedgerTransaction--><path d="M137.49,236.2 C182.4,271.31 284.45,351.1 332.53,388.69 " fill="none" id="DeserializedOutputGroup-LedgerTransaction" style="stroke: #A80036; stroke-width: 1.0;"/><polygon fill="#A80036" points="336.73,391.98,332.1077,383.2832,332.7925,388.8985,327.1772,389.5832,336.73,391.98" style="stroke: #A80036; stroke-width: 1.0;"/><!--link ReferenceGroup to LedgerTransaction--><path d="M614,332.02 C559.28,348.51 476.53,373.44 420.14,390.43 " fill="none" id="ReferenceGroup-LedgerTransaction" style="stroke: #A80036; stroke-width: 1.0;"/><polygon fill="#A80036" points="415.11,391.95,424.8815,393.1818,419.8972,390.5067,422.5723,385.5223,415.11,391.95" style="stroke: #A80036; stroke-width: 1.0;"/><!--
@startuml

component Witness
component SerializedOutputGroup
component input_staterefs
component reference_staterefs
component SerializedInputUtxos
component SerializedReferenceUtxos
component DeserializedOutputGroup
component DeserializedInputUtxos
component DeserializedReferenceUtxos
component InputGroup
component ReferenceGroup
component LedgerTransaction

Witness - -> input_staterefs
Witness - -> reference_staterefs
Witness - -> SerializedInputUtxos
Witness - -> SerializedOutputGroup
Witness - -> SerializedReferenceUtxos
SerializedInputUtxos - -> DeserializedInputUtxos
SerializedOutputGroup - -> DeserializedOutputGroup
SerializedReferenceUtxos - -> DeserializedReferenceUtxos
input_staterefs - - -> InputGroup
DeserializedInputUtxos - -> InputGroup
reference_staterefs - - -> ReferenceGroup
DeserializedReferenceUtxos - -> ReferenceGroup
InputGroup - -> LedgerTransaction
DeserializedOutputGroup - - -> LedgerTransaction
ReferenceGroup - -> LedgerTransaction
@enduml

PlantUML version 1.2019.07(Mon Jun 24 21:59:20 CEST 2019)
(GPL source distribution)
Java Runtime: OpenJDK Runtime Environment
JVM: OpenJDK 64-Bit Server VM
Java Version: 11.0.13+8-post-Debian-1
Operating System: Linux
OS Version: 5.15.0-2-amd64
Default Encoding: UTF-8
Language: en
Country: US
--></g></svg>